<?xml version="1.0" standalone="no"?>
<!DOCTYPE svg PUBLIC "-//W3C//DTD SVG 20010904//EN"
 "http://www.w3.org/TR/2001/REC-SVG-20010904/DTD/svg10.dtd">
<svg version="1.0" xmlns="http://www.w3.org/2000/svg"
 width="100.000000pt" height="95.000000pt" viewBox="0 0 100.000000 95.000000"
 preserveAspectRatio="xMidYMid meet">
<metadata>
Created by potrace 1.14, written by Peter Selinger 2001-2017
</metadata>
<g transform="translate(0.000000,95.000000) scale(0.100000,-0.100000)"
fill="#000000" stroke="none">
<path d="M777 863 c-15 -49 -39 -133 -53 -188 -61 -231 -84 -309 -96 -317 -20
-12 -353 -10 -382 3 -16 7 -31 27 -40 53 -8 23 -31 79 -50 126 -20 47 -35 96
-34 110 l3 25 215 5 c118 3 221 9 228 13 18 12 14 45 -7 57 -21 11 -459 14
-523 4 l-38 -7 0 -53 c0 -40 4 -54 14 -54 8 0 21 -19 29 -42 17 -47 60 -151
100 -239 40 -90 37 -89 299 -89 222 0 228 1 248 22 18 20 60 132 60 162 0 6
11 49 24 96 13 47 36 130 51 185 32 116 44 135 94 135 66 0 81 9 81 46 l0 34
-98 0 -98 0 -27 -87z"/>
<path d="M126 149 c-29 -23 -34 -61 -14 -116 12 -32 14 -33 68 -33 l57 0 11
39 c18 57 15 79 -13 106 -30 31 -73 32 -109 4z"/>
<path d="M646 139 c-31 -36 -31 -41 -8 -96 17 -42 18 -43 67 -43 47 0 51 3 68
36 24 49 21 76 -11 107 -39 38 -82 36 -116 -4z"/>
</g>
</svg>
