<?xml version="1.0" standalone="no"?>
<!DOCTYPE svg PUBLIC "-//W3C//DTD SVG 20010904//EN"
 "http://www.w3.org/TR/2001/REC-SVG-20010904/DTD/svg10.dtd">
<svg version="1.0" xmlns="http://www.w3.org/2000/svg"
 width="200.000000pt" height="47.000000pt" viewBox="0 0 200.000000 47.000000"
 preserveAspectRatio="xMidYMid meet">
<metadata>
Created by potrace 1.14, written by Peter Selinger 2001-2017
</metadata>
<g transform="translate(0.000000,47.000000) scale(0.100000,-0.100000)"
fill="#000000" stroke="none">
<path d="M690 443 c-45 -23 -62 -57 -57 -111 4 -37 14 -53 70 -111 67 -69 89
-113 68 -134 -17 -17 -45 4 -51 39 -5 26 -9 29 -40 26 -47 -4 -54 -14 -41 -55
17 -52 51 -78 103 -80 78 -3 118 34 118 109 0 48 -12 69 -82 140 -49 51 -59
66 -56 90 4 35 40 42 46 9 6 -31 18 -38 56 -31 30 6 36 11 36 31 0 14 -12 39
-27 55 -36 40 -93 49 -143 23z"/>
<path d="M1545 453 c-60 -15 -85 -77 -85 -218 0 -136 19 -187 76 -211 92 -38
174 24 174 131 l0 45 -40 0 c-42 0 -46 -5 -52 -74 -4 -40 -34 -58 -54 -32 -19
27 -20 254 -1 280 20 28 51 17 55 -19 6 -71 10 -76 50 -73 33 3 37 6 40 33 12
100 -62 162 -163 138z"/>
<path d="M57 444 c-4 -4 -7 -85 -7 -181 l0 -173 -25 -12 c-18 -8 -25 -19 -25
-39 0 -34 13 -39 64 -24 74 22 77 33 74 244 l-3 186 -35 3 c-20 2 -39 0 -43
-4z"/>
<path d="M277 444 c-11 -11 -8 -304 3 -343 21 -73 87 -105 165 -79 67 22 75
48 76 249 l1 174 -41 3 -41 3 0 -160 c0 -170 -8 -211 -39 -211 -35 0 -40 22
-43 196 l-3 169 -35 3 c-20 2 -39 0 -43 -4z"/>
<path d="M934 435 c-10 -25 4 -45 30 -45 l26 0 2 -182 3 -183 40 0 40 0 5 180
5 180 28 3 c23 3 27 8 27 33 l0 29 -100 0 c-80 0 -102 -3 -106 -15z"/>
<path d="M1245 438 c-3 -8 -4 -103 -3 -213 l3 -200 40 0 40 0 0 210 0 210 -38
3 c-24 2 -39 -1 -42 -10z"/>
<path d="M1820 235 l0 -215 90 0 90 0 0 29 c0 28 -3 30 -42 33 l-43 3 -3 62
-3 62 33 9 c45 11 45 43 1 54 -32 8 -33 10 -33 63 l0 55 45 0 c43 0 45 1 45
30 l0 30 -90 0 -90 0 0 -215z"/>
</g>
</svg>
