<?xml version="1.0" standalone="no"?>
<!DOCTYPE svg PUBLIC "-//W3C//DTD SVG 20010904//EN"
 "http://www.w3.org/TR/2001/REC-SVG-20010904/DTD/svg10.dtd">
<svg version="1.0" xmlns="http://www.w3.org/2000/svg"
 width="150.000000pt" height="100.000000pt" viewBox="0 0 150.000000 100.000000"
 preserveAspectRatio="xMidYMid meet">
<metadata>
Created by potrace 1.14, written by Peter Selinger 2001-2017
</metadata>
<g transform="translate(0.000000,100.000000) scale(0.100000,-0.100000)"
fill="#000000" stroke="none">
<path d="M0 936 c0 -58 2 -64 23 -70 29 -8 1425 -8 1455 0 20 6 22 12 22 70
l0 64 -750 0 -750 0 0 -64z"/>
<path d="M0 486 c0 -58 2 -64 23 -70 29 -8 1425 -8 1455 0 20 6 22 12 22 70
l0 64 -750 0 -750 0 0 -64z"/>
<path d="M18 133 c-15 -4 -18 -16 -18 -69 l0 -64 750 0 750 0 0 64 c0 58 -2
64 -22 70 -26 7 -1434 6 -1460 -1z"/>
</g>
</svg>
