<?xml version="1.0" standalone="no"?>
<!DOCTYPE svg PUBLIC "-//W3C//DTD SVG 20010904//EN"
 "http://www.w3.org/TR/2001/REC-SVG-20010904/DTD/svg10.dtd">
<svg version="1.0" xmlns="http://www.w3.org/2000/svg"
 width="100.000000pt" height="106.000000pt" viewBox="0 0 100.000000 106.000000"
 preserveAspectRatio="xMidYMid meet">
<metadata>
Created by potrace 1.14, written by Peter Selinger 2001-2017
</metadata>
<g transform="translate(0.000000,106.000000) scale(0.100000,-0.100000)"
fill="#000000" stroke="none">
<path d="M250 1045 c0 -8 -18 -24 -40 -35 -53 -27 -142 -118 -165 -169 -10
-23 -24 -41 -32 -41 -10 0 -13 -32 -13 -155 0 -127 3 -155 14 -155 8 0 24 -20
36 -45 32 -65 136 -157 212 -186 96 -37 199 -33 300 10 71 30 79 31 99 18 33
-24 259 -264 259 -276 0 -6 18 -11 40 -11 l40 0 0 45 c0 30 -4 45 -13 45 -7 0
-70 58 -140 128 -89 91 -127 136 -127 152 0 13 12 43 26 68 72 123 72 305 -1
422 -40 66 -94 118 -147 146 -27 13 -48 31 -48 39 0 13 -24 15 -150 15 -126 0
-150 -2 -150 -15z m262 -90 c82 -33 137 -85 178 -168 31 -63 32 -71 28 -155
-4 -80 -8 -95 -39 -147 -35 -59 -88 -109 -149 -141 -53 -28 -199 -26 -263 3
-109 51 -187 178 -187 305 0 126 86 254 203 301 82 34 148 35 229 2z"/>
</g>
</svg>
