<?xml version="1.0" standalone="no"?>
<!DOCTYPE svg PUBLIC "-//W3C//DTD SVG 20010904//EN"
 "http://www.w3.org/TR/2001/REC-SVG-20010904/DTD/svg10.dtd">
<svg version="1.0" xmlns="http://www.w3.org/2000/svg"
 width="100.000000pt" height="100.000000pt" viewBox="0 0 100.000000 100.000000"
 preserveAspectRatio="xMidYMid meet">
<metadata>
Created by potrace 1.14, written by Peter Selinger 2001-2017
</metadata>
<g transform="translate(0.000000,100.000000) scale(0.100000,-0.100000)"
fill="#000000" stroke="none">
<path d="M370 987 c0 -7 -13 -20 -28 -29 -108 -64 -134 -289 -52 -433 17 -29
30 -60 30 -69 0 -17 -67 -71 -103 -82 -50 -16 -153 -92 -172 -127 -11 -21 -25
-37 -32 -37 -10 0 -13 -27 -13 -105 l0 -105 500 0 500 0 0 105 c0 78 -3 105
-13 105 -7 0 -21 16 -32 37 -19 35 -122 111 -172 127 -36 11 -103 65 -103 82
0 9 13 40 30 69 82 144 56 369 -52 433 -15 9 -28 22 -28 29 0 10 -31 13 -130
13 -99 0 -130 -3 -130 -13z m213 -71 c78 -33 115 -120 101 -239 -6 -58 -48
-152 -85 -193 -42 -46 -7 -92 120 -155 153 -77 204 -127 205 -203 1 -66 2 -66
-424 -66 -426 0 -425 0 -424 66 1 76 52 126 205 203 127 63 162 109 120 155
-37 41 -79 135 -85 193 -14 118 22 205 99 239 39 17 127 18 168 0z"/>
</g>
</svg>
